<?xml version="1.0" encoding="utf-8"?>
<!-- Generator: Adobe Illustrator 19.1.0, SVG Export Plug-In . SVG Version: 6.00 Build 0)  -->
<svg version="1.1" id="Слой_1" xmlns="http://www.w3.org/2000/svg" xmlns:xlink="http://www.w3.org/1999/xlink" x="0px" y="0px"
	 viewBox="264.3 0 236.8 211" style="enable-background:new 264.3 0 236.8 211;" xml:space="preserve">
<style type="text/css">
	.st0{fill:#C7C7C7;}
	.st1{fill:#0EADFF;}
	.st2{fill:#FFFFFF;}
</style>
<g>
	<g>
		<path class="st0" d="M382.8,211L382.8,211c-27,0-52.4-11.8-69.7-32.5c-32.2-38.4-27.2-95.9,11.2-128.1
			c16.4-13.7,37.1-21.3,58.4-21.3c27,0,52.4,11.8,69.7,32.5c15.6,18.6,23.1,42.2,21,66.4c-2.1,24.2-13.5,46.1-32.1,61.8
			C424.9,203.4,404.1,211,382.8,211z M382.7,37c-19.5,0-38.4,6.9-53.4,19.4c-35.1,29.5-39.6,81.9-10.2,117
			c15.8,18.8,39,29.6,63.6,29.6l0,0c19.5,0,38.4-6.9,53.4-19.4c17-14.2,27.4-34.3,29.3-56.4c1.9-22.1-4.9-43.6-19.1-60.6
			C430.5,47.8,407.4,37,382.7,37z"/>
	</g>
	<g>
		<path class="st0" d="M382.8,14.4c-2.2,0-4-1.8-4-4V4c0-2.2,1.8-4,4-4c2.2,0,4,1.8,4,4v6.5C386.7,12.7,385,14.4,382.8,14.4z"/>
	</g>
	<g>
		<path class="st0" d="M420.4,21.1c-0.5,0-0.9-0.1-1.4-0.2c-2-0.7-3.1-3-2.4-5.1l2.2-6.1c0.7-2,3-3.1,5.1-2.4c2,0.7,3.1,3,2.4,5.1
			l-2.2,6.1C423.5,20.1,421.9,21.1,420.4,21.1z"/>
	</g>
	<g>
		<path class="st0" d="M453.3,40.2c-0.9,0-1.8-0.3-2.5-0.9c-1.7-1.4-1.9-3.9-0.5-5.6l4.2-5c1.4-1.7,3.9-1.9,5.6-0.5
			c1.7,1.4,1.9,3.9,0.5,5.6l-4.2,5C455.6,39.7,454.5,40.2,453.3,40.2z"/>
	</g>
	<g>
		<path class="st0" d="M477.8,69.5c-1.4,0-2.7-0.7-3.4-2c-1.1-1.9-0.4-4.3,1.5-5.4l5.7-3.2c1.9-1.1,4.3-0.4,5.4,1.5
			c1.1,1.9,0.4,4.3-1.5,5.4l-5.7,3.2C479.2,69.3,478.5,69.5,477.8,69.5z"/>
	</g>
	<g>
		<path class="st0" d="M490.7,105.4c-1.9,0-3.6-1.4-3.9-3.3c-0.4-2.1,1.1-4.2,3.2-4.6l6.4-1.1c2.1-0.4,4.2,1.1,4.6,3.2
			c0.4,2.1-1.1,4.2-3.2,4.6l-6.4,1.1C491.2,105.4,490.9,105.4,490.7,105.4z"/>
	</g>
	<g>
		<path class="st0" d="M497,144.7c-0.2,0-0.5,0-0.7-0.1l-6.4-1.2c-2.1-0.4-3.6-2.4-3.2-4.6c0.4-2.1,2.4-3.6,4.6-3.2l6.4,1.2
			c2.1,0.4,3.6,2.4,3.2,4.6C500.6,143.3,498.9,144.7,497,144.7z"/>
	</g>
	<g>
		<path class="st0" d="M483,182.6c-0.7,0-1.4-0.2-2-0.6l-5.7-3.3c-1.9-1.1-2.5-3.5-1.4-5.4c1.1-1.9,3.5-2.5,5.4-1.4l5.6,3.3
			c1.9,1.1,2.5,3.5,1.4,5.4C485.7,181.9,484.4,182.6,483,182.6z"/>
	</g>
	<g>
		<path class="st1" d="M281.6,181c-1.4,0-2.7-0.7-3.4-2c-1.1-1.9-0.4-4.3,1.5-5.4l5.7-3.2c1.9-1.1,4.3-0.4,5.4,1.5
			c1.1,1.9,0.4,4.3-1.5,5.4l-5.7,3.2C282.9,180.8,282.3,181,281.6,181z"/>
	</g>
	<g>
		<path class="st1" d="M268.2,142.8c-1.9,0-3.6-1.4-3.9-3.3c-0.3-2.1,1.1-4.2,3.2-4.5l6.4-1.1c2.1-0.3,4.2,1.1,4.5,3.2
			c0.3,2.1-1.1,4.2-3.2,4.5l-6.4,1.1C268.6,142.8,268.4,142.8,268.2,142.8z"/>
	</g>
	<g>
		<path class="st1" d="M275.1,103.6c-0.2,0-0.5,0-0.7-0.1l-6.4-1.2c-2.1-0.4-3.6-2.5-3.2-4.6c0.4-2.1,2.4-3.6,4.6-3.2l6.4,1.2
			c2.1,0.4,3.6,2.5,3.2,4.6C278.6,102.3,277,103.6,275.1,103.6z"/>
	</g>
	<g>
		<path class="st1" d="M288.6,67.9c-0.7,0-1.4-0.2-2-0.6L281,64c-1.9-1.1-2.5-3.6-1.4-5.4c1.1-1.9,3.6-2.5,5.4-1.4l5.6,3.3
			c1.9,1.1,2.5,3.6,1.4,5.4C291.3,67.3,290,67.9,288.6,67.9z"/>
	</g>
	<g>
		<path class="st1" d="M313.6,39.1c-1.1,0-2.3-0.5-3.1-1.5l-4.1-5.1c-1.4-1.7-1.1-4.2,0.6-5.6c1.7-1.4,4.2-1.1,5.6,0.6l4.1,5.1
			c1.4,1.7,1.1,4.2-0.6,5.6C315.3,38.8,314.4,39.1,313.6,39.1z"/>
	</g>
	<g>
		<path class="st0" d="M346.9,20.5c-1.6,0-3.2-1-3.7-2.7l-2.1-6.2c-0.7-2,0.4-4.3,2.4-5c2-0.7,4.3,0.4,5,2.4l2.1,6.2
			c0.7,2-0.4,4.3-2.4,5C347.7,20.4,347.3,20.5,346.9,20.5z"/>
	</g>
	<g>
		<path class="st1" d="M350.8,85.9c-1.1,0-2.2-0.5-3-1.4l-10.4-12.4c-1.4-1.7-1.2-4.2,0.5-5.6c1.7-1.4,4.2-1.2,5.6,0.5l10.4,12.4
			c1.4,1.7,1.2,4.2-0.5,5.6C352.6,85.6,351.7,85.9,350.8,85.9z"/>
	</g>
	<g>
		<path class="st2" d="M387.1,144.6c-13.6,2.4-26.5-6.7-28.9-20.2c-2.4-13.6,6.7-26.5,20.2-28.9c13.6-2.4,26.5,6.7,28.9,20.2
			C409.7,129.3,400.6,142.2,387.1,144.6z"/>
		<path class="st0" d="M382.7,148.9c-14.1,0-26-10.1-28.4-23.9c-1.3-7.6,0.4-15.3,4.8-21.6c4.4-6.3,11-10.5,18.6-11.9
			c1.7-0.3,3.3-0.4,5-0.4c14.1,0,26,10.1,28.4,23.9c1.3,7.6-0.4,15.3-4.8,21.6c-4.4,6.3-11,10.5-18.6,11.9
			C386.1,148.8,384.4,148.9,382.7,148.9z M382.8,99.1c-1.2,0-2.4,0.1-3.7,0.3c-5.5,1-10.3,4-13.6,8.6c-3.2,4.6-4.5,10.1-3.5,15.7
			c1.8,10.1,10.4,17.4,20.6,17.4c1.2,0,2.4-0.1,3.7-0.3c5.5-1,10.3-4,13.6-8.6c3.2-4.6,4.5-10.1,3.5-15.7
			C401.6,106.4,393,99.1,382.8,99.1z"/>
	</g>
</g>
</svg>
