<?xml version="1.0" encoding="utf-8"?>
<!-- Generator: Adobe Illustrator 19.1.0, SVG Export Plug-In . SVG Version: 6.00 Build 0)  -->
<svg version="1.1" id="Слой_1" xmlns="http://www.w3.org/2000/svg" xmlns:xlink="http://www.w3.org/1999/xlink" x="0px" y="0px"
	 viewBox="264.3 0 236.8 211" style="enable-background:new 264.3 0 236.8 211;" xml:space="preserve">
<style type="text/css">
	.st0{fill:#C7C7C7;}
	.st1{fill:#FFFFFF;}
	.st2{fill:#0EADFF;}
</style>
<g>
	<path class="st0" d="M382.7,211c-58.2,0-105.5-47.3-105.5-105.5S324.5,0,382.7,0s105.5,47.3,105.5,105.5S440.9,211,382.7,211z
		 M382.7,8.9c-53.3,0-96.6,43.3-96.6,96.6s43.3,96.6,96.6,96.6s96.6-43.3,96.6-96.6S435.9,8.9,382.7,8.9z"/>
	<path class="st1" d="M299.4,110c-2.5,0-4.5-2-4.5-4.5c0-48.4,39.4-87.8,87.8-87.8c2.5,0,4.5,2,4.5,4.5s-2,4.5-4.5,4.5
		c-43.5,0-78.9,35.4-78.9,78.9C303.8,108,301.8,110,299.4,110z"/>
	<path class="st1" d="M382.7,193.3c-2.5,0-4.5-2-4.5-4.5c0-2.5,2-4.5,4.5-4.5c43.5,0,78.9-35.4,78.9-78.9c0-2.5,2-4.5,4.5-4.5
		c2.5,0,4.5,2,4.5,4.5C470.5,153.9,431.1,193.3,382.7,193.3z"/>
	<path class="st0" d="M382.7,110c-2.5,0-4.5-2-4.5-4.5V47.1c0-2.5,2-4.5,4.5-4.5s4.5,2,4.5,4.5v58.4C387.1,108,385.2,110,382.7,110z
		"/>
	<path class="st2" d="M382.7,193.3c-48.4,0-87.8-39.4-87.8-87.8c0-2.5,2-4.5,4.5-4.5c2.5,0,4.5,2,4.5,4.5
		c0,43.5,35.4,78.9,78.9,78.9c2.5,0,4.5,2,4.5,4.5C387.1,191.3,385.2,193.3,382.7,193.3z"/>
	<path class="st2" d="M466,110c-2.5,0-4.5-2-4.5-4.5c0-43.5-35.4-78.9-78.9-78.9c-2.5,0-4.5-2-4.5-4.5s2-4.5,4.5-4.5
		c48.4,0,87.8,39.4,87.8,87.8C470.5,108,468.5,110,466,110z"/>
	<path class="st2" d="M382.7,110c-2.5,0-4.5-2-4.5-4.5v-39c0-2.5,2-4.5,4.5-4.5s4.5,2,4.5,4.5v39C387.1,108,385.2,110,382.7,110z"/>
</g>
</svg>
