<?xml version="1.0" encoding="utf-8"?>
<!-- Generator: Adobe Illustrator 19.1.0, SVG Export Plug-In . SVG Version: 6.00 Build 0)  -->
<svg version="1.1" id="Слой_1" xmlns="http://www.w3.org/2000/svg" xmlns:xlink="http://www.w3.org/1999/xlink" x="0px" y="0px"
	 viewBox="264.3 0 236.8 211" style="enable-background:new 264.3 0 236.8 211;" xml:space="preserve">
<style type="text/css">
	.st0{fill:#0EADFF;}
	.st1{fill:#FFFFFF;}
	.st2{fill:#C7C7C7;}
</style>
<g>
	<polygon class="st0" points="310.7,208.9 454.7,208.9 430.4,157.8 335,157.8 	"/>
	<polygon class="st1" points="368.8,90.5 368.8,100.6 325.3,197.9 335.4,197.9 378.9,100.6 378.9,90.5 	"/>
	<path class="st0" d="M389.8,78.8c0,4-3.2,7.1-7.1,7.1c-4,0-7.1-3.2-7.1-7.1c0-4,3.2-7.1,7.1-7.1C386.7,71.7,389.8,74.9,389.8,78.8z
		"/>
	<path class="st2" d="M454.7,211h-144c-1.3,0-2.5-0.6-3.2-1.7c-0.7-1.1-0.7-2.4-0.2-3.6l47.8-106V69.7c0-2.1,1.6-3.8,3.7-3.8
		s3.7,1.7,3.7,3.8v30.9c0,0.5-0.2,1.1-0.4,1.6l-45.6,101.4h132.2l-45.6-101.4c-0.2-0.5-0.4-1.1-0.4-1.6V69.7c0-2.1,1.6-3.8,3.7-3.8
		s3.7,1.7,3.7,3.8v30.1l47.8,106c0.5,1.2,0.5,2.5-0.2,3.6C457.1,210.4,455.9,211,454.7,211z"/>
	<path class="st2" d="M418.1,59.7h-70.7c-2.1,0-3.8-1.6-3.8-3.7s1.7-3.7,3.8-3.7H418c2.1,0,3.8,1.6,3.8,3.7S420.1,59.7,418.1,59.7z"
		/>
	<path class="st0" d="M420.8,14.3c0,7.9-6.4,14.3-14.3,14.3c-7.9,0-14.3-6.4-14.3-14.3c0-7.9,6.4-14.3,14.3-14.3
		C414.4,0,420.8,6.4,420.8,14.3z"/>
	<path class="st1" d="M394.4,174.7c0,1.2-1,2.2-2.2,2.2c-1.2,0-2.2-1-2.2-2.2s1-2.2,2.2-2.2C393.4,172.4,394.4,173.4,394.4,174.7z"
		/>
	<g>
		<path class="st0" d="M401.4,153.5c-2.8,0-5.2,2.3-5.2,5.2h10.3C406.5,155.8,404.2,153.5,401.4,153.5z"/>
		<path class="st1" d="M401.4,163.8c2.8,0,5.2-2.3,5.2-5.2h-10.3C396.2,161.6,398.5,163.8,401.4,163.8z"/>
	</g>
</g>
</svg>
