<?xml version="1.0" encoding="utf-8"?>
<!-- Generator: Adobe Illustrator 19.1.0, SVG Export Plug-In . SVG Version: 6.00 Build 0)  -->
<svg version="1.1" id="Calque_1" xmlns="http://www.w3.org/2000/svg" xmlns:xlink="http://www.w3.org/1999/xlink" x="0px" y="0px"
	 viewBox="-365 266.3 110.9 64" style="enable-background:new -365 266.3 110.9 64;" xml:space="preserve">
<style type="text/css">
	.st0{fill:#F9F9F9;}
	.st1{clip-path:url(#SVGID_2_);fill:none;stroke:#C7C7C7;stroke-width:3;stroke-linejoin:round;stroke-miterlimit:10;}
	.st2{clip-path:url(#SVGID_4_);fill:none;stroke:#C7C7C7;stroke-width:3;stroke-linejoin:round;stroke-miterlimit:10;}
	.st3{clip-path:url(#SVGID_6_);fill:#C7C7C7;}
	.st4{clip-path:url(#SVGID_8_);fill:#0EADFF;}
	.st5{clip-path:url(#SVGID_10_);fill:#C7C7C7;}
	.st6{clip-path:url(#SVGID_12_);fill:none;stroke:#C7C7C7;stroke-width:3;stroke-linejoin:round;stroke-miterlimit:10;}
	.st7{clip-path:url(#SVGID_14_);fill:none;stroke:#C7C7C7;stroke-width:3;stroke-linejoin:round;stroke-miterlimit:10;}
	
		.st8{clip-path:url(#SVGID_16_);fill:none;stroke:#0EADFF;stroke-width:3;stroke-linecap:round;stroke-linejoin:round;stroke-miterlimit:10;}
	
		.st9{clip-path:url(#SVGID_18_);fill:none;stroke:#0EADFF;stroke-width:3;stroke-linecap:round;stroke-linejoin:round;stroke-miterlimit:10;}
	
		.st10{clip-path:url(#SVGID_20_);fill:none;stroke:#0EADFF;stroke-width:3;stroke-linecap:round;stroke-linejoin:round;stroke-miterlimit:10;}
	
		.st11{clip-path:url(#SVGID_22_);fill:none;stroke:#0EADFF;stroke-width:3;stroke-linecap:round;stroke-linejoin:round;stroke-miterlimit:10;}
	.st12{clip-path:url(#SVGID_24_);fill:#F9F9F9;}
	.st13{clip-path:url(#SVGID_26_);fill:#0EADFF;}
	.st14{clip-path:url(#SVGID_28_);fill:#C7C7C7;}
</style>
<rect x="-363.5" y="267.8" class="st0" width="72.5" height="10"/>
<g>
	<g>
		<defs>
			<rect id="SVGID_1_" x="-365" y="266.3" width="110.9" height="64"/>
		</defs>
		<clipPath id="SVGID_2_">
			<use xlink:href="#SVGID_1_"  style="overflow:visible;"/>
		</clipPath>
		<rect x="-363.5" y="267.8" class="st1" width="73" height="61"/>
	</g>
	<g>
		<defs>
			<rect id="SVGID_3_" x="-365" y="266.3" width="110.9" height="64"/>
		</defs>
		<clipPath id="SVGID_4_">
			<use xlink:href="#SVGID_3_"  style="overflow:visible;"/>
		</clipPath>
		<line class="st2" x1="-364" y1="277.8" x2="-291" y2="277.8"/>
	</g>
	<g>
		<defs>
			<rect id="SVGID_5_" x="-365" y="266.3" width="110.9" height="64"/>
		</defs>
		<clipPath id="SVGID_6_">
			<use xlink:href="#SVGID_5_"  style="overflow:visible;"/>
		</clipPath>
		<path class="st3" d="M-354.9,272.9c0,0.9-0.7,1.6-1.6,1.6c-0.9,0-1.6-0.7-1.6-1.6c0-0.9,0.7-1.6,1.6-1.6
			C-355.7,271.2-354.9,272-354.9,272.9"/>
	</g>
	<g>
		<defs>
			<rect id="SVGID_7_" x="-365" y="266.3" width="110.9" height="64"/>
		</defs>
		<clipPath id="SVGID_8_">
			<use xlink:href="#SVGID_7_"  style="overflow:visible;"/>
		</clipPath>
		<path class="st4" d="M-349.9,272.9c0,0.9-0.7,1.6-1.6,1.6c-0.9,0-1.6-0.7-1.6-1.6c0-0.9,0.7-1.6,1.6-1.6
			C-350.7,271.2-349.9,272-349.9,272.9"/>
	</g>
	<g>
		<defs>
			<rect id="SVGID_9_" x="-365" y="266.3" width="110.9" height="64"/>
		</defs>
		<clipPath id="SVGID_10_">
			<use xlink:href="#SVGID_9_"  style="overflow:visible;"/>
		</clipPath>
		<path class="st5" d="M-344.9,272.9c0,0.9-0.7,1.6-1.6,1.6c-0.9,0-1.6-0.7-1.6-1.6c0-0.9,0.7-1.6,1.6-1.6
			C-345.7,271.2-344.9,272-344.9,272.9"/>
	</g>
	<g>
		<defs>
			<rect id="SVGID_11_" x="-365" y="266.3" width="110.9" height="64"/>
		</defs>
		<clipPath id="SVGID_12_">
			<use xlink:href="#SVGID_11_"  style="overflow:visible;"/>
		</clipPath>
		<rect x="-356.5" y="285.8" class="st6" width="24" height="16"/>
	</g>
	<g>
		<defs>
			<rect id="SVGID_13_" x="-365" y="266.3" width="110.9" height="64"/>
		</defs>
		<clipPath id="SVGID_14_">
			<use xlink:href="#SVGID_13_"  style="overflow:visible;"/>
		</clipPath>
		<rect x="-322.5" y="285.8" class="st7" width="24" height="16"/>
	</g>
	<g>
		<defs>
			<rect id="SVGID_15_" x="-365" y="266.3" width="110.9" height="64"/>
		</defs>
		<clipPath id="SVGID_16_">
			<use xlink:href="#SVGID_15_"  style="overflow:visible;"/>
		</clipPath>
		<line class="st8" x1="-356" y1="310.8" x2="-333" y2="310.8"/>
	</g>
	<g>
		<defs>
			<rect id="SVGID_17_" x="-365" y="266.3" width="110.9" height="64"/>
		</defs>
		<clipPath id="SVGID_18_">
			<use xlink:href="#SVGID_17_"  style="overflow:visible;"/>
		</clipPath>
		<line class="st9" x1="-356" y1="319.8" x2="-333" y2="319.8"/>
	</g>
	<g>
		<defs>
			<rect id="SVGID_19_" x="-365" y="266.3" width="110.9" height="64"/>
		</defs>
		<clipPath id="SVGID_20_">
			<use xlink:href="#SVGID_19_"  style="overflow:visible;"/>
		</clipPath>
		<line class="st10" x1="-322" y1="310.8" x2="-299" y2="310.8"/>
	</g>
	<g>
		<defs>
			<rect id="SVGID_21_" x="-365" y="266.3" width="110.9" height="64"/>
		</defs>
		<clipPath id="SVGID_22_">
			<use xlink:href="#SVGID_21_"  style="overflow:visible;"/>
		</clipPath>
		<line class="st11" x1="-322" y1="319.8" x2="-299" y2="319.8"/>
	</g>
	<g>
		<defs>
			<rect id="SVGID_23_" x="-365" y="266.3" width="110.9" height="64"/>
		</defs>
		<clipPath id="SVGID_24_">
			<use xlink:href="#SVGID_23_"  style="overflow:visible;"/>
		</clipPath>
		<path class="st12" d="M-255.4,320.4l-9.8-9.8c-0.1-0.1-0.3-0.3-0.5-0.4c5.2-8.3,4.2-19.4-3-26.6c-4.1-4.1-9.5-6.3-15.2-6.3
			c-5.7,0-11.1,2.2-15.2,6.3c-4.1,4.1-6.3,9.5-6.3,15.2c0,5.7,2.2,11.1,6.3,15.2c4.1,4.1,9.5,6.3,15.2,6.3c4.4,0,8.5-1.3,12-3.7
			c0.1,0.1,0.2,0.2,0.3,0.3l9.8,9.8c0.8,0.9,2,1.3,3.2,1.3s2.3-0.5,3.2-1.3c0.9-0.8,1.3-2,1.3-3.2
			C-254.1,322.4-254.6,321.2-255.4,320.4 M-283.9,311.3c-3.3,0-6.5-1.3-8.8-3.7c-4.9-4.9-4.9-12.8,0-17.7c2.4-2.4,5.5-3.7,8.8-3.7
			c3.3,0,6.5,1.3,8.8,3.7c4.9,4.9,4.9,12.8,0,17.7C-277.4,310-280.5,311.3-283.9,311.3"/>
	</g>
	<g>
		<defs>
			<rect id="SVGID_25_" x="-365" y="266.3" width="110.9" height="64"/>
		</defs>
		<clipPath id="SVGID_26_">
			<use xlink:href="#SVGID_25_"  style="overflow:visible;"/>
		</clipPath>
		<path class="st13" d="M-283.9,317.3c-4.9,0-9.6-1.9-13.1-5.4c-7.2-7.2-7.2-19,0-26.2c3.5-3.5,8.1-5.4,13.1-5.4
			c4.9,0,9.6,1.9,13.1,5.4c7.2,7.2,7.2,18.9,0,26.2C-274.3,315.4-278.9,317.3-283.9,317.3 M-283.9,283.3c-4.1,0-8,1.6-11,4.5
			c-6,6-6,15.9,0,21.9c2.9,2.9,6.8,4.5,11,4.5c4.1,0,8-1.6,11-4.5c6-6,6-15.9,0-21.9C-275.8,284.9-279.7,283.3-283.9,283.3"/>
	</g>
	<g>
		<defs>
			<rect id="SVGID_27_" x="-365" y="266.3" width="110.9" height="64"/>
		</defs>
		<clipPath id="SVGID_28_">
			<use xlink:href="#SVGID_27_"  style="overflow:visible;"/>
		</clipPath>
		<path class="st14" d="M-259.6,324.1c-0.4,0-0.8-0.1-1.1-0.4l-7.8-7.8c-0.6-0.6-0.6-1.5,0-2.1s1.5-0.6,2.1,0l7.8,7.8
			c0.6,0.6,0.6,1.5,0,2.1C-258.8,323.9-259.2,324.1-259.6,324.1"/>
	</g>
</g>
</svg>
